# xmcd
#
# Track frame offsets: 
#        150
#        19405
#        37150
#        57237
#        84255
#        102250
#        130495
#        148522
#        173245
#
# Disc length: 2698 seconds
#
# Revision: 0
# Processed by: cddbd v1.5.1PL0 Copyright (c) Steve Scherf et al.
# Submitted via: ExactAudioCopy v0.95a5
#
DISCID=7b0a8809
DTITLE=Blues Denile - 45 R.P.M. Extdended Play Record
DYEAR=1999
DGENRE=Blues
TTITLE0=Studebaker Blues
TTITLE1=Eucalyptus Blues
TTITLE2=Hurricane
TTITLE3=Reconcile My Love
TTITLE4=Lovin' Me
TTITLE5=Sweet Little Bird
TTITLE6=Calle De Locos
TTITLE7=Alligator Jelly
TTITLE8=Mustang Sally
EXTD=
EXTT0=
EXTT1=
EXTT2=
EXTT3=
EXTT4=
EXTT5=
EXTT6=
EXTT7=
EXTT8=
PLAYORDER=
